<?xml version="1.0" standalone="no"?>
<!DOCTYPE svg PUBLIC "-//W3C//DTD SVG 20010904//EN"
 "http://www.w3.org/TR/2001/REC-SVG-20010904/DTD/svg10.dtd">
<svg version="1.0" xmlns="http://www.w3.org/2000/svg"
 width="225.000000pt" height="225.000000pt" viewBox="0 0 225.000000 225.000000"
 preserveAspectRatio="xMidYMid meet">

<g transform="translate(0.000000,225.000000) scale(0.100000,-0.100000)"
fill="#000000" stroke="none">
<path d="M1775 2028 c-30 -17 -44 -40 -45 -69 0 -41 29 -127 53 -154 20 -24
24 -25 44 -10 25 18 55 101 57 158 1 31 -5 44 -27 63 -31 26 -52 29 -82 12z"/>
<path d="M1210 1710 l0 -120 33 0 c53 0 154 -28 217 -60 33 -17 91 -59 129
-95 273 -258 206 -700 -131 -870 -62 -31 -112 -45 -210 -60 l-38 -6 0 -106 0
-105 66 7 c97 10 198 41 289 88 61 32 102 63 176 137 83 83 102 108 142 190
25 52 53 124 62 159 76 299 -35 622 -277 809 -111 85 -289 152 -405 152 l-53
0 0 -120z"/>
<path d="M1916 1770 c-59 -23 -81 -43 -73 -64 10 -25 86 -58 148 -63 48 -5 59
-3 78 16 29 29 28 81 -2 109 -29 28 -84 28 -151 2z"/>
<path d="M1402 1160 c-45 -28 -76 -97 -67 -151 8 -45 43 -93 86 -114 89 -47
209 27 209 128 0 38 -1 39 -18 24 -27 -24 -58 -21 -81 9 -27 35 -26 49 5 81
20 20 23 28 12 34 -25 17 -112 10 -146 -11z"/>
<path d="M617 1072 c-36 -39 -7 -102 45 -102 25 0 58 36 58 63 0 50 -70 76
-103 39z"/>
</g>
</svg>
